<?xml version="1.0" standalone="no"?>
<!DOCTYPE svg PUBLIC "-//W3C//DTD SVG 20010904//EN"
 "http://www.w3.org/TR/2001/REC-SVG-20010904/DTD/svg10.dtd">
<svg version="1.0" xmlns="http://www.w3.org/2000/svg"
 width="275.000000pt" height="275.000000pt" viewBox="0 0 275.000000 275.000000"
 preserveAspectRatio="xMidYMid meet">
<metadata>
Created by potrace 1.16, written by Peter Selinger 2001-2019
</metadata>
<g transform="translate(0.000000,275.000000) scale(0.091667,-0.163690)"
fill="#000000" stroke="none">
<path d="M0 840 l0 -840 1500 0 1500 0 0 840 0 840 -1500 0 -1500 0 0 -840z
m1157 534 c24 -15 56 -71 67 -117 4 -15 10 -25 15 -22 16 9 41 -43 41 -85 0
-34 -6 -48 -32 -73 -18 -18 -41 -50 -51 -71 -30 -66 -82 -121 -144 -152 -32
-16 -59 -29 -60 -30 -2 0 -33 -153 -33 -162 0 -2 51 -1 113 2 154 7 155 7 215
0 l52 -6 -2 -231 -3 -232 -447 -2 -448 -3 0 234 0 234 53 6 c62 8 70 8 216 0
l114 -6 -6 24 c-3 12 -9 43 -13 68 -8 50 -20 80 -34 80 -5 0 -36 16 -68 35
-62 36 -123 111 -137 168 -4 15 -13 27 -21 27 -40 0 -61 108 -30 155 22 34 36
31 37 -7 1 -22 5 -11 13 32 12 66 36 123 58 136 25 16 78 19 291 16 173 -3
227 -6 244 -18z m1421 -536 l-3 -543 -357 -3 -358 -2 0 545 0 545 360 0 360 0
-2 -542z"/>
<path d="M2530 830 l0 -490 -307 -3 -308 -2 313 -3 312 -2 0 495 c0 272 -2
495 -5 495 -3 0 -5 -220 -5 -490z"/>
</g>
</svg>
