<?xml version="1.0" standalone="no"?>
<!DOCTYPE svg PUBLIC "-//W3C//DTD SVG 20010904//EN"
 "http://www.w3.org/TR/2001/REC-SVG-20010904/DTD/svg10.dtd">
<svg version="1.0" xmlns="http://www.w3.org/2000/svg"
 width="70.000000pt" height="70.000000pt" viewBox="0 0 70.000000 70.000000"
 preserveAspectRatio="xMidYMid meet">
<metadata>
Created by potrace 1.16, written by Peter Selinger 2001-2019
</metadata>
<g transform="translate(0.000000,70.000000) scale(0.014000,-0.014000)"
fill="#000000" stroke="none">
<path d="M1982 3123 c-69 -119 -182 -357 -182 -384 0 -13 244 -11 257 2 8 8
13 8 17 0 7 -11 216 -16 216 -6 0 23 -136 285 -158 304 -15 13 -21 20 -14 16
11 -6 12 -3 3 14 -7 11 -16 21 -21 21 -6 0 -10 7 -10 16 0 8 -4 13 -10 9 -5
-3 -18 12 -30 35 -11 22 -22 40 -25 40 -2 0 -22 -30 -43 -67z"/>
<path d="M3375 3151 c-184 -100 -375 -247 -485 -373 l-42 -48 190 0 190 0 52
53 c28 28 75 84 104 122 72 97 73 99 45 90 -17 -4 -20 -3 -10 3 10 7 10 11 1
17 -7 4 -13 -1 -17 -14 -3 -12 -8 -21 -12 -21 -4 0 -27 -17 -52 -37 l-44 -38
30 36 c17 20 34 34 39 31 5 -3 7 2 3 11 -3 9 -1 19 5 23 7 4 8 3 4 -4 -4 -7
-3 -12 2 -12 5 0 17 16 26 35 19 40 27 44 23 14 -4 -37 21 -32 38 7 11 27 12
41 5 48 -8 8 -9 5 -4 -9 7 -17 6 -18 -8 -7 -11 9 -18 10 -23 2 -3 -5 -13 -10
-21 -10 -10 0 -6 14 16 53 46 82 44 83 -55 28z"/>
<path d="M2620 3140 c-18 -67 -57 -277 -65 -347 l-7 -63 112 0 112 0 -7 56
c-4 32 -13 87 -19 123 l-13 66 -11 -35 c-10 -34 -10 -33 -7 18 2 43 0 52 -12
48 -9 -4 -13 -1 -10 6 2 7 9 12 15 11 7 -2 7 9 0 35 -13 49 -22 57 -14 12 5
-23 4 -30 -2 -21 -8 11 -10 11 -14 0 -3 -8 -11 13 -18 46 -19 89 -26 96 -40
45z"/>
<path d="M1637 2263 c-17 -28 -92 -424 -84 -446 1 -5 19 14 37 43 19 29 38 58
41 63 4 5 11 7 17 3 6 -4 5 -21 -5 -47 -11 -35 -12 -44 -1 -50 14 -9 50 29 42
43 -2 3 4 13 15 20 24 17 84 127 145 266 26 56 46 105 46 107 0 8 -248 6 -253
-2z"/>
<path d="M1937 2258 c105 -140 252 -281 385 -371 65 -44 223 -137 233 -137 11
0 -32 250 -72 413 l-26 107 -99 0 c-54 0 -98 -2 -98 -5 0 -2 23 -52 50 -111
28 -59 50 -108 50 -109 0 -2 -51 49 -114 111 l-114 114 -102 0 c-80 0 -100 -3
-93 -12z"/>
<path d="M2550 2254 c0 -66 65 -412 80 -428 5 -5 12 8 16 28 3 21 12 40 19 42
7 3 11 15 8 27 -4 20 -3 20 7 5 7 -12 8 -24 1 -35 -5 -9 -5 -26 -1 -37 4 -12
8 -25 8 -31 0 -5 5 -11 11 -13 7 -2 7 8 0 30 -12 42 -11 48 2 48 5 0 8 -4 5
-8 -2 -4 -1 -14 4 -21 6 -11 9 -9 14 5 10 33 45 256 52 332 l7 72 -117 0
c-100 0 -116 -2 -116 -16z"/>
<path d="M2888 2225 c139 -158 386 -352 560 -439 l72 -36 -15 37 c-40 96 -190
289 -313 403 l-86 80 -129 0 -129 0 40 -45z"/>
</g>
</svg>
